<svg xmlns="http://www.w3.org/2000/svg" xmlns:xlink="http://www.w3.org/1999/xlink" version="1.1" x="0px" y="0px" viewBox="0 0 100 100" enable-background="new 0 0 100 100" xml:space="preserve"><circle cx="47.001" cy="26.897" r="1.606"></circle><circle cx="38.363" cy="28.64" r="6.088"></circle><path d="M20.704,3v90.954h6.216v-1.205h6.363l0.054,1.082c0.034,1.352,0.503,2.38,2.235,2.336c1.732-0.044,2.245-0.984,2.211-2.336  l-0.002-1.082h0.376l-0.002,1.082c-0.034,1.352,0.479,2.292,2.211,2.336c1.732,0.044,2.2-0.984,2.235-2.336l0.054-1.082h24.381  v1.205h6.264V3H20.704z M37.78,91.544l-0.024-17.027c0,0,0,0,0,0l0.015-8.066c0.077,0.003,0.341,0.005,0.398,0.003l0.015,8.063  c0,0,0,0,0,0l-0.024,17.027H37.78z M67.036,91.544H42.716l0.827-16.494v0l0.55-9.438c0.115,0.018,0.24,0.028,0.379,0.028  c1.053,0,1.179-0.53,1.179-1.307l0.726-11.791c0-0.058,0-10.542,0-10.542c-1.226-5.242-6.021-5.475-7.444-5.359l0.008,0.008  c-0.308-0.045-1.588-0.044-1.903,0.003l0.002-0.001c-1.354-0.184-5.973,2.266-6.488,5.275l-1.193,8.796  c-0.638,0.196-1.048,1.278-1.009,2.541l0.768,2.492c0.7,1.33,1.755,1.526,2.393,1.33c0,0,0.02,3.41,0.05,3.664l0.834,14.303v0  l0.827,16.494H26.92V9.831h40.164L67.036,91.544z M70.891,91.544h-2.602V8.626H25.716v82.918h-2.602V5.409h47.778V91.544z"></path></svg>